<mxfile host="app.diagrams.net" modified="2024-02-25T15:43:52.576Z" agent="Mozilla/5.0 (X11; Linux x86_64; rv:109.0) Gecko/20100101 Firefox/115.0" version="23.1.6" etag="yCA70jvkIzpnW-8gXENW" type="github">
  <diagram name="Page-1" id="BUrdRSvkr-NK4CyP0dR4">
    <mxGraphModel>
      <root>
        <mxCell id="0" />
        <mxCell id="1" parent="0" />
      </root>
    </mxGraphModel>
  </diagram>
</mxfile>
